:SAMPLES-PER-SECOND 30
:FULLY-SPECIFIED
:DEGREES
509
root  -10.3008 34.4392 -0.730438 9.62162 43.6501 -0.125714
LeftUpLeg  -12.5876 12.6382 3.61973
LeftLeg  8.61604 9.16083 0.786481
LeftFoot  6.29194 -0.0528575 1.01983
LeftToes  -19.8811 6.91067e-007 1.07128e-007
Spine  3.60335 -0.106268 0.202519
Spine1  7.20743 -0.216355 0.389124
RightShoulder  -0.0146187 3.17046 -0.550667
RightArm  41.6987 -38.3444 47.9909
RightForeArm  22.0178 79.6865 106.079
RightHand  10.3881 -37.0507 -29.9815
LeftShoulder1  0.00351259 0.859014 -4.81483
LeftArm  50.7428 34.4345 -38.4536
LeftForeArm  53.8803 -78.0879 -123.531
LeftHand  6.55834 36.6275 19.2687
HEad  1.11943 10.1276 -6.92916
RightUpLeg  -10.0523 -13.767 2.46511
RightLeg  3.67398 7.48109 0.000630517
RightFoot  4.4357 -0.00766889 0.575114
RightToes  -26.3024 -0.119305 -0.225463
510
root  -10.1155 34.4628 -0.819708 9.6194 43.7643 -0.142853
LeftUpLeg  -11.9595 12.0287 3.41028
LeftLeg  7.53542 9.53217 0.638248
LeftFoot  6.60901 -0.0583459 1.11349
LeftToes  -20.1498 6.91067e-007 1.07128e-007
Spine  3.39623 -0.0804023 0.0502166
Spine1  6.79294 -0.153115 0.0855281
RightShoulder  -0.0146554 2.99903 -0.119065
RightArm  41.0812 -39.625 47.9367
RightForeArm  24.0225 79.5385 108.748
RightHand  10.7567 -36.6014 -31.4047
LeftShoulder1  0.00331815 1.26755 -5.06766
LeftArm  51.0294 34.6411 -37.7678
LeftForeArm  55.3992 -77.7528 -125.9
LeftHand  7.07883 36.7002 20.7531
HEad  0.31048 11.732 -6.62936
RightUpLeg  -9.82185 -13.3805 2.09009
RightLeg  3.40438 6.91034 -0.0319111
RightFoot  4.74302 -0.00760746 0.56673
RightToes  -26.8291 -0.122561 -0.229335
511
root  -9.89199 34.486 -0.930989 9.63226 43.7381 -0.221079
LeftUpLeg  -11.442 11.6838 3.17358
LeftLeg  6.65837 9.63806 0.498029
LeftFoot  6.68681 -0.0597533 1.13845
LeftToes  -19.8482 6.91067e-007 1.07128e-007
Spine  3.14685 0.090876 -0.115222
Spine1  6.29344 0.201182 -0.232472
RightShoulder  -0.014667 2.72761 0.0786834
RightArm  40.9295 -40.7518 47.7142
RightForeArm  25.148 79.4593 109.999
RightHand  10.7074 -36.6489 -31.2236
LeftShoulder1  0.00311153 1.57537 -5.22424
LeftArm  50.9129 35.0093 -37.2137
LeftForeArm  56.6319 -77.4785 -127.652
LeftHand  7.41423 36.8902 21.6134
HEad  -0.492093 12.7097 -6.29902
RightUpLeg  -9.67849 -13.2189 1.71006
RightLeg  3.21206 6.73514 -0.0537015
RightFoot  5.06246 -0.00951025 0.589162
RightToes  -27.3869 -0.126347 -0.233401
512
root  -9.63541 34.4846 -1.07402 9.48584 43.7638 -0.449835
LeftUpLeg  -11.1502 12.0024 2.91684
LeftLeg  6.32282 9.07701 0.416222
LeftFoot  6.30268 -0.0515655 1.0099
LeftToes  -19.7444 6.91067e-007 1.07128e-007
Spine  2.95091 0.268449 -0.241931
Spine1  5.89994 0.564048 -0.481003
RightShoulder  -0.0147211 2.67959 -0.0244642
RightArm  40.8675 -41.4395 47.8067
RightForeArm  24.8851 79.4825 109.638
RightHand  10.6157 -36.9114 -30.7377
LeftShoulder1  0.00289342 1.76544 -5.32801
LeftArm  50.5566 35.3133 -36.9138
LeftForeArm  56.9791 -77.3136 -128.647
LeftHand  7.82891 37.0832 22.6882
HEad  -1.01942 13.4145 -6.13956
RightUpLeg  -9.55049 -13.1753 1.34267
RightLeg  3.19251 6.66444 -0.0554144
RightFoot  5.20416 -0.0105887 0.599207
RightToes  -28.1646 -0.131488 -0.239009
513
root  -9.36954 34.469 -1.25168 9.24621 44.0304 -0.714133
LeftUpLeg  -11.0844 12.4104 2.56731
LeftLeg  6.41807 8.38703 0.398679
LeftFoot  5.55634 -0.0398126 0.822428
LeftToes  -19.0086 6.91067e-007 1.07128e-007
Spine  2.86446 0.388201 -0.324886
Spine1  5.72573 0.80789 -0.646308
RightShoulder  -0.014821 2.89559 -0.226876
RightArm  40.7482 -41.5855 48.283
RightForeArm  22.9782 79.6075 107.573
RightHand  10.6637 -37.0121 -30.7856
LeftShoulder1  0.00266447 1.79122 -5.40796
LeftArm  50.2858 35.2143 -36.9399
LeftForeArm  56.3841 -77.2955 -128.769
LeftHand  8.36695 37.2279 24.1319
HEad  -1.1041 13.7851 -6.04216
RightUpLeg  -9.44033 -12.9696 0.952201
RightLeg  3.33603 6.1292 -0.0356231
RightFoot  5.25132 -0.00814213 0.555023
RightToes  -28.9763 -0.136936 -0.244788
514
root  -9.10536 34.4559 -1.44893 8.98337 44.4903 -0.692309
LeftUpLeg  -10.8243 12.1064 2.06932
LeftLeg  6.49478 8.25297 0.403366
LeftFoot  4.95169 -0.033793 0.721451
LeftToes  -18.1952 6.91067e-007 1.07128e-007
Spine  2.91183 0.459833 -0.458117
Spine1  5.81897 0.958535 -0.909206
RightShoulder  -0.0149169 3.07842 -0.244027
RightArm  40.8363 -41.1442 48.698
RightForeArm  19.9302 79.7732 104.306
RightHand  10.6223 -37.2281 -30.4859
LeftShoulder1  0.00242537 1.83602 -5.58544
LeftArm  50.4165 34.5171 -36.6895
LeftForeArm  55.9949 -77.3347 -128.546
LeftHand  8.56748 37.1985 24.7235
HEad  -0.609264 14.1148 -6.01047
RightUpLeg  -8.99091 -11.3703 0.209137
RightLeg  3.25927 3.94805 -0.0281247
RightFoot  5.45078 0.00347814 0.367257
RightToes  -30.0943 -0.144571 -0.252621
515
root  -8.84425 34.4467 -1.64879 8.62832 45.0492 -0.735625
LeftUpLeg  -10.6822 11.6242 1.64766
LeftLeg  6.92179 8.12298 0.457496
LeftFoot  4.237 -0.0270908 0.608116
LeftToes  -17.0611 6.91067e-007 1.07128e-007
Spine  2.97458 0.53141 -0.530932
Spine1  5.94321 1.10588 -1.0506
RightShoulder  -0.0150438 3.39914 -0.211529
RightArm  41.0915 -40.8047 48.661
RightForeArm  18.5996 79.8417 102.667
RightHand  10.4646 -37.2874 -29.9971
LeftShoulder1  0.00217679 1.68072 -5.5158
LeftArm  50.4694 34.134 -36.6336
LeftForeArm  55.8667 -77.4463 -127.872
LeftHand  8.3711 37.3428 24.0652
HEad  0.699759 14.5582 -6.14698
RightUpLeg  -8.60322 -9.81403 -0.440868
RightLeg  3.4205 1.6983 -0.00686587
RightFoot  5.54313 0.0164739 0.155572
RightToes  -30.6755 -0.1486 -0.256633
516
root  -8.57741 34.4405 -1.84354 8.2761 45.6019 -0.6726
LeftUpLeg  -10.5046 11.3413 1.1809
LeftLeg  7.49497 7.71131 0.511547
LeftFoot  3.51687 -0.0194879 0.479907
LeftToes  -16.3924 6.91067e-007 1.07128e-007
Spine  3.14424 0.6314 -0.672969
Spine1  6.27961 1.3159 -1.32896
RightShoulder  -0.0151113 3.4669 -0.319753
RightArm  40.8943 -40.4776 49.1384
RightForeArm  17.5144 79.9067 100.819
RightHand  10.1609 -37.4472 -29.0209
LeftShoulder1  0.00191941 1.61204 -5.40791
LeftArm  50.5204 33.6015 -36.3737
LeftForeArm  57.3507 -77.2615 -128.945
LeftHand  8.13554 37.2583 23.4514
HEad  2.0523 14.715 -6.18944
RightUpLeg  -8.21056 -8.49365 -1.17517
RightLeg  3.77033 -0.221269 0.000659266
RightFoot  5.55562 0.0276482 -0.0298676
RightToes  -31.3215 -0.153126 -0.261045
517
root  -8.33387 34.4255 -2.06083 7.80766 46.0331 -0.745887
LeftUpLeg  -10.4739 11.4112 0.793325
LeftLeg  8.35022 7.05267 0.573496
LeftFoot  2.67408 -0.0108071 0.334946
LeftToes  -15.5924 6.91067e-007 1.07128e-007
Spine  3.43244 0.808514 -0.82039
Spine1  6.85146 1.68313 -1.61214
RightShoulder  -0.0151633 3.48797 -0.41811
RightArm  40.0017 -40.4768 49.8933
RightForeArm  17.2108 79.9465 99.4333
RightHand  9.87971 -37.7025 -28.0376
LeftShoulder1  0.00165389 1.65987 -5.48568
LeftArm  50.1544 32.998 -36.1295
LeftForeArm  59.4808 -76.9974 -130.385
LeftHand  7.94809 37.1428 22.9915
HEad  2.33135 14.5663 -6.31713
RightUpLeg  -8.19371 -8.45346 -1.73286
RightLeg  4.80508 -0.731944 -0.013139
RightFoot  5.31855 0.0297427 -0.0758083
RightToes  -32.2617 -0.159801 -0.267374
518
root  -8.14948 34.4046 -2.29902 7.37826 46.3237 -0.939067
LeftUpLeg  -10.4427 11.4429 0.481645
LeftLeg  8.74836 6.62194 0.58477
LeftFoot  2.0522 -0.00544546 0.242444
LeftToes  -14.889 6.91067e-007 1.07128e-007
Spine  3.68448 0.991283 -0.954884
Spine1  7.35029 2.06174 -1.86844
RightShoulder  -0.0152253 3.55147 -0.312154
RightArm  39.4406 -40.6378 50.334
RightForeArm  17.107 79.9705 98.4621
RightHand  9.58339 -37.5275 -27.3477
LeftShoulder1  0.00138091 1.92961 -5.83371
LeftArm  49.4862 32.7154 -35.9055
LeftForeArm  60.605 -76.8914 -130.929
LeftHand  7.85877 36.8851 22.9038
HEad  1.52514 14.4355 -6.36426
RightUpLeg  -8.47894 -8.33826 -2.13606
RightLeg  5.97033 -1.1508 -0.0445927
RightFoot  5.07688 0.0309807 -0.10938
RightToes  -32.6299 -0.162444 -0.271117
519
root  -8.00602 34.4014 -2.52766 7.13395 46.5568 -1.18512
LeftUpLeg  -10.3638 11.6344 0.18973
LeftLeg  8.4699 6.15333 0.513449
LeftFoot  1.89047 -0.00369183 0.207761
LeftToes  -14.3441 6.91067e-007 1.07128e-007
Spine  3.80585 1.14218 -1.08079
Spine1  7.58788 2.37439 -2.11082
RightShoulder  -0.0152587 3.51867 -0.154978
RightArm  39.0904 -40.8239 50.749
RightForeArm  15.8869 80.0096 96.7146
RightHand  9.43688 -37.4681 -26.9829
LeftShoulder1  0.00110115 2.38345 -6.285
LeftArm  48.7082 32.7466 -35.8339
LeftForeArm  60.893 -76.83 -131.245
LeftHand  8.03005 36.6033 23.5889
HEad  -0.203097 14.1869 -6.25689
RightUpLeg  -8.80831 -8.20731 -2.42341
RightLeg  6.64006 -1.49561 -0.0757898
RightFoot  5.25089 0.0323328 -0.145118
RightToes  -33.2623 -0.167018 -0.273988
520
root  -7.86708 34.4201 -2.72748 7.18471 46.7955 -1.43335
LeftUpLeg  -10.3829 12.001 -0.140631
LeftLeg  7.77025 5.55955 0.395868
LeftFoot  2.02221 -0.00354058 0.200602
LeftToes  -13.6871 6.91067e-007 1.07128e-007
Spine  3.73456 1.27065 -1.24538
Spine1  7.43858 2.64192 -2.43554
RightShoulder  -0.0152843 3.49377 -0.170651
RightArm  38.7837 -41.219 51.2751
RightForeArm  14.3237 80.0414 94.8944
RightHand  9.39712 -37.5987 -26.7735
LeftShoulder1  0.000815271 2.69959 -6.60512
LeftArm  48.2217 33.1091 -35.4905
LeftForeArm  61.8647 -76.5035 -132.86
LeftHand  8.47344 36.4055 25.0172
HEad  -1.69721 13.7405 -5.93327
RightUpLeg  -9.32873 -8.9788 -2.58922
RightLeg  7.12739 -0.993574 -0.0583533
RightFoot  5.57025 0.0288342 -0.105391
RightToes  -33.6982 -0.170199 -0.27683
